<?xml version="1.0" encoding="UTF-8"?>
<svg xmlns="http://www.w3.org/2000/svg" xmlns:xlink="http://www.w3.org/1999/xlink" width="35px" height="35px" viewBox="0 0 35 35" version="1.1">
<g id="surface1">
<path style=" stroke:none;fill-rule:nonzero;fill:rgb(0%,50.196078%,0%);fill-opacity:1;" d="M 11.78125 0.992188 C 10.6875 1 9.574219 1.222656 8.628906 1.511719 C 7.683594 1.796875 6.90625 2.148438 6.183594 2.460938 C 5.457031 2.777344 4.785156 3.054688 4.238281 3.242188 C 3.6875 3.433594 3.261719 3.539062 2.839844 3.605469 C 2.417969 3.671875 2 3.703125 1.878906 3.765625 C 1.761719 3.828125 1.941406 3.925781 2.195312 4.042969 C 2.449219 4.15625 2.777344 4.292969 3.054688 4.480469 C 3.328125 4.667969 3.554688 4.90625 3.980469 5.261719 C 4.40625 5.613281 5.03125 6.085938 5.625 6.515625 C 6.21875 6.945312 6.78125 7.332031 7.453125 7.667969 C 8.125 8.003906 8.910156 8.289062 9.695312 8.554688 C 10.484375 8.820312 11.277344 9.066406 12.074219 9.300781 C 12.875 9.535156 13.679688 9.757812 14.472656 9.867188 C 15.265625 9.976562 16.042969 9.96875 16.597656 9.898438 C 17.152344 9.828125 17.492188 9.691406 17.695312 9.675781 C 17.902344 9.65625 17.976562 9.753906 18.109375 9.984375 C 18.246094 10.214844 18.4375 10.582031 18.558594 10.886719 C 18.675781 11.195312 18.722656 11.441406 18.824219 11.515625 C 18.925781 11.589844 19.082031 11.492188 19.058594 11.160156 C 19.035156 10.828125 18.835938 10.261719 18.664062 9.875 C 18.492188 9.492188 18.347656 9.289062 18.386719 9.015625 C 18.421875 8.742188 18.640625 8.398438 18.804688 7.96875 C 18.96875 7.535156 19.082031 7.011719 18.917969 6.257812 C 18.753906 5.503906 18.3125 4.515625 17.617188 3.667969 C 16.921875 2.820312 15.972656 2.113281 14.960938 1.652344 C 13.949219 1.191406 12.875 0.984375 11.78125 0.992188 Z M 11.214844 2.351562 C 11.214844 2.347656 11.226562 2.351562 11.238281 2.355469 C 11.351562 2.386719 11.820312 2.589844 12.238281 2.902344 C 12.65625 3.21875 13.023438 3.644531 13.328125 4.128906 C 13.628906 4.613281 13.867188 5.160156 14.0625 5.570312 C 14.257812 5.980469 14.40625 6.257812 14.539062 6.421875 C 14.675781 6.585938 14.792969 6.636719 15.046875 6.785156 C 15.300781 6.929688 15.691406 7.167969 15.894531 7.207031 C 16.101562 7.242188 16.125 7.078125 16.082031 6.628906 C 16.042969 6.183594 15.9375 5.449219 15.65625 4.832031 C 15.375 4.210938 14.921875 3.703125 14.507812 3.3125 C 14.09375 2.917969 13.71875 2.640625 13.738281 2.609375 C 13.753906 2.574219 14.167969 2.785156 14.605469 3.121094 C 15.039062 3.457031 15.503906 3.917969 15.816406 4.433594 C 16.132812 4.949219 16.296875 5.515625 16.386719 6.03125 C 16.472656 6.546875 16.488281 7.011719 16.546875 7.308594 C 16.601562 7.609375 16.699219 7.742188 16.898438 7.925781 C 17.101562 8.109375 17.40625 8.339844 17.566406 8.355469 C 17.722656 8.371094 17.730469 8.167969 17.71875 7.769531 C 17.707031 7.371094 17.675781 6.773438 17.523438 6.097656 C 17.371094 5.421875 17.09375 4.667969 17.007812 4.320312 C 16.921875 3.972656 17.027344 4.03125 17.183594 4.320312 C 17.339844 4.605469 17.550781 5.121094 17.703125 5.617188 C 17.855469 6.113281 17.953125 6.59375 17.988281 7.128906 C 18.019531 7.667969 17.992188 8.265625 18.003906 8.632812 C 18.019531 8.996094 18.082031 9.132812 18.066406 9.207031 C 18.050781 9.28125 17.960938 9.296875 17.867188 9.21875 C 17.773438 9.140625 17.675781 8.96875 17.546875 8.875 C 17.414062 8.78125 17.25 8.765625 16.980469 8.738281 C 16.714844 8.714844 16.339844 8.675781 15.808594 8.613281 C 15.28125 8.550781 14.59375 8.460938 14.367188 8.398438 C 14.144531 8.332031 14.382812 8.296875 14.738281 8.300781 C 15.09375 8.304688 15.5625 8.347656 15.945312 8.375 C 16.324219 8.398438 16.617188 8.40625 16.714844 8.359375 C 16.8125 8.3125 16.714844 8.207031 16.542969 8.070312 C 16.371094 7.9375 16.125 7.773438 15.832031 7.59375 C 15.539062 7.414062 15.203125 7.21875 14.957031 7.164062 C 14.710938 7.109375 14.554688 7.191406 14.3125 7.289062 C 14.070312 7.382812 13.742188 7.496094 13.261719 7.550781 C 12.785156 7.601562 12.15625 7.59375 11.488281 7.554688 C 10.820312 7.519531 10.109375 7.453125 9.824219 7.386719 C 9.535156 7.324219 9.671875 7.265625 9.972656 7.253906 C 10.277344 7.242188 10.746094 7.28125 11.261719 7.296875 C 11.777344 7.308594 12.335938 7.300781 12.804688 7.234375 C 13.269531 7.167969 13.644531 7.042969 13.851562 6.945312 C 14.0625 6.847656 14.105469 6.78125 14.007812 6.695312 C 13.90625 6.609375 13.660156 6.503906 13.25 6.324219 C 12.84375 6.144531 12.277344 5.890625 11.84375 5.742188 C 11.410156 5.59375 11.113281 5.546875 10.722656 5.582031 C 10.335938 5.613281 9.855469 5.726562 9.261719 5.796875 C 8.667969 5.867188 7.960938 5.898438 7.65625 5.863281 C 7.355469 5.832031 7.460938 5.734375 7.753906 5.671875 C 8.050781 5.605469 8.535156 5.578125 8.976562 5.523438 C 9.417969 5.472656 9.8125 5.398438 10 5.335938 C 10.1875 5.269531 10.164062 5.21875 9.984375 5.148438 C 9.804688 5.078125 9.46875 4.988281 9.058594 4.882812 C 8.648438 4.777344 8.160156 4.660156 7.691406 4.546875 C 7.21875 4.433594 6.765625 4.328125 6.324219 4.242188 C 5.882812 4.15625 5.457031 4.089844 5.21875 4.019531 C 4.980469 3.949219 4.929688 3.875 5.109375 3.859375 C 5.292969 3.84375 5.710938 3.890625 6.179688 3.953125 C 6.644531 4.015625 7.160156 4.097656 7.386719 4.105469 C 7.609375 4.113281 7.542969 4.046875 7.304688 3.832031 C 7.0625 3.621094 6.652344 3.261719 6.542969 3.125 C 6.429688 2.984375 6.617188 3.066406 6.875 3.230469 C 7.132812 3.394531 7.460938 3.644531 7.703125 3.859375 C 7.945312 4.074219 8.101562 4.261719 8.300781 4.382812 C 8.496094 4.5 8.738281 4.554688 8.84375 4.511719 C 8.953125 4.472656 8.929688 4.335938 8.703125 4.027344 C 8.476562 3.71875 8.042969 3.230469 7.933594 3.054688 C 7.824219 2.875 8.042969 3 8.292969 3.207031 C 8.542969 3.410156 8.828125 3.695312 9.050781 3.976562 C 9.273438 4.253906 9.4375 4.53125 9.757812 4.71875 C 10.074219 4.90625 10.542969 5.003906 10.785156 4.992188 C 11.03125 4.980469 11.042969 4.859375 10.941406 4.632812 C 10.835938 4.40625 10.613281 4.070312 10.300781 3.738281 C 9.992188 3.410156 9.597656 3.089844 9.507812 2.96875 C 9.417969 2.84375 9.632812 2.917969 9.9375 3.128906 C 10.238281 3.335938 10.625 3.679688 10.921875 4.070312 C 11.214844 4.457031 11.417969 4.890625 11.699219 5.164062 C 11.976562 5.433594 12.335938 5.546875 12.730469 5.691406 C 13.121094 5.839844 13.546875 6.019531 13.722656 6.042969 C 13.898438 6.070312 13.824219 5.941406 13.671875 5.566406 C 13.523438 5.1875 13.300781 4.5625 12.945312 4.023438 C 12.589844 3.484375 12.105469 3.039062 11.738281 2.746094 C 11.417969 2.492188 11.191406 2.355469 11.214844 2.351562 Z M 11.214844 2.351562 "/>
<path style=" stroke:none;fill-rule:nonzero;fill:rgb(16.862745%,6.666667%,0%);fill-opacity:1;" d="M 21.859375 5.328125 C 21.84375 5.332031 21.832031 5.335938 21.816406 5.347656 C 21.757812 5.394531 21.691406 5.511719 21.589844 5.554688 C 21.488281 5.601562 21.355469 5.574219 21.226562 5.515625 C 21.097656 5.457031 20.972656 5.367188 20.933594 5.414062 C 20.898438 5.460938 20.949219 5.648438 20.992188 5.820312 C 21.035156 5.992188 21.066406 6.148438 20.996094 6.371094 C 20.925781 6.59375 20.75 6.878906 20.402344 7.457031 C 20.058594 8.039062 19.539062 8.917969 19.222656 9.667969 C 18.902344 10.421875 18.78125 11.050781 18.71875 11.417969 C 18.660156 11.789062 18.660156 11.898438 18.796875 11.964844 C 18.933594 12.027344 19.207031 12.042969 19.359375 11.890625 C 19.515625 11.742188 19.546875 11.425781 19.613281 11.070312 C 19.679688 10.71875 19.777344 10.328125 20.003906 9.832031 C 20.230469 9.339844 20.585938 8.742188 20.898438 8.304688 C 21.214844 7.871094 21.488281 7.597656 21.75 7.402344 C 22.011719 7.210938 22.261719 7.097656 22.441406 7.070312 C 22.621094 7.042969 22.730469 7.09375 22.6875 6.921875 C 22.644531 6.75 22.449219 6.355469 22.304688 6.054688 C 22.160156 5.757812 22.066406 5.558594 21.992188 5.445312 C 21.941406 5.359375 21.898438 5.324219 21.859375 5.328125 Z M 21.859375 5.328125 "/>
<path style=" stroke:none;fill-rule:nonzero;fill:rgb(66.666667%,0%,0%);fill-opacity:1;" d="M 12.480469 10.78125 C 12.320312 10.78125 12.160156 10.785156 12.003906 10.789062 C 10.757812 10.839844 9.726562 11.074219 8.972656 11.421875 C 8.214844 11.769531 7.738281 12.230469 7.28125 12.738281 C 6.828125 13.246094 6.394531 13.800781 6 14.546875 C 5.601562 15.292969 5.246094 16.222656 5.019531 17.574219 C 4.796875 18.925781 4.707031 20.691406 4.996094 22.269531 C 5.289062 23.851562 5.960938 25.242188 6.835938 26.664062 C 7.710938 28.082031 8.785156 29.527344 9.882812 30.636719 C 10.980469 31.742188 12.101562 32.507812 13.042969 33 C 13.984375 33.496094 14.746094 33.71875 15.632812 33.84375 C 16.523438 33.96875 17.539062 33.996094 18.128906 34.003906 C 18.71875 34.011719 19.253906 34.011719 19.84375 34.003906 C 20.433594 33.996094 21.449219 33.96875 22.335938 33.84375 C 23.226562 33.71875 23.988281 33.496094 24.929688 33 C 25.871094 32.507812 26.992188 31.742188 28.089844 30.636719 C 29.1875 29.527344 30.261719 28.082031 31.136719 26.664062 C 32.007812 25.242188 32.679688 23.851562 32.972656 22.269531 C 33.265625 20.691406 33.175781 18.925781 32.949219 17.574219 C 32.726562 16.222656 32.367188 15.292969 31.972656 14.546875 C 31.578125 13.800781 31.144531 13.246094 30.6875 12.738281 C 30.230469 12.230469 29.753906 11.769531 29 11.421875 C 28.246094 11.074219 27.214844 10.839844 25.96875 10.789062 C 24.71875 10.742188 23.257812 10.878906 22.089844 10.957031 C 20.925781 11.03125 20.058594 11.046875 19.625 11.054688 C 19.191406 11.0625 18.777344 11.0625 18.34375 11.054688 C 17.910156 11.046875 17.042969 11.03125 15.878906 10.957031 C 14.859375 10.890625 13.613281 10.773438 12.480469 10.78125 Z M 12.480469 10.78125 "/>
</g>
</svg>
